<svg xmlns="http://www.w3.org/2000/svg" viewBox="0 0 980 340" width="980" height="340">
  <defs>
    <style>
      @font-face { font-family: 'JetBrains Mono'; src: local('JetBrains Mono'), local('IBM Plex Mono'), local('Fira Code'), local('SF Mono'), local('Menlo'); }
      text { font-family: 'JetBrains Mono', 'IBM Plex Mono', 'Fira Code', 'SF Mono', 'Menlo', monospace; }
    </style>
  </defs>
  <rect width="980" height="340" rx="16" fill="#09090B"/>
  <rect width="980" height="340" rx="16" fill="none" stroke="#22D3EE" stroke-width="1.5"/>
  <text x="32" y="48" font-size="14" fill="#22D3EE" font-weight="700" letter-spacing="1">GITHUB.STATS</text>
  <text x="32" y="80" font-size="12" fill="#94A3B8">• Total Stars Earned</text>
  <text x="292" y="80" font-size="12" fill="#F8FAFC">0</text>
  <text x="32" y="110" font-size="12" fill="#94A3B8">• Total Commits</text>
  <text x="292" y="110" font-size="12" fill="#F8FAFC">24</text>
  <text x="32" y="140" font-size="12" fill="#94A3B8">• Total PRs</text>
  <text x="292" y="140" font-size="12" fill="#F8FAFC">2</text>
  <text x="32" y="170" font-size="12" fill="#94A3B8">• Total Issues</text>
  <text x="292" y="170" font-size="12" fill="#F8FAFC">0</text>
  <text x="32" y="200" font-size="12" fill="#94A3B8">• Contributed to (last year)</text>
  <text x="292" y="200" font-size="12" fill="#F8FAFC">24</text>
  <text x="510" y="48" font-size="14" fill="#22D3EE" font-weight="700" letter-spacing="1">MOST.USED.LANGUAGES</text>
  <rect x="510" y="68" width="438" height="14" rx="7" fill="#334155"/>
  <rect x="510" y="68" width="346.45799999999997" height="14" rx="0" fill="#3178c6"/>
  <rect x="856.458" y="68" width="34.602000000000004" height="14" rx="0" fill="#f1e05a"/>
  <rect x="891.06" y="68" width="27.156" height="14" rx="0" fill="#3572A5"/>
  <rect x="918.2159999999999" y="68" width="27.156" height="14" rx="0" fill="#94A3B8"/>
  <rect x="945.3719999999998" y="68" width="2.19" height="14" rx="0" fill="#94A3B8"/>
  <rect x="947.5619999999999" y="68" width="0.438" height="14" rx="0" fill="#94A3B8"/>
  <circle cx="510" cy="104" r="5" fill="#3178c6"/>
  <text x="522" y="108" font-size="11" fill="#F8FAFC">TypeScript 79.1%</text>
  <circle cx="730" cy="104" r="5" fill="#f1e05a"/>
  <text x="742" y="108" font-size="11" fill="#F8FAFC">JavaScript 7.9%</text>
  <circle cx="510" cy="132" r="5" fill="#3572A5"/>
  <text x="522" y="136" font-size="11" fill="#F8FAFC">Python 6.2%</text>
  <circle cx="730" cy="132" r="5" fill="#94A3B8"/>
  <text x="742" y="136" font-size="11" fill="#F8FAFC">Jupyter Notebook 6.2%</text>
  <circle cx="510" cy="160" r="5" fill="#94A3B8"/>
  <text x="522" y="164" font-size="11" fill="#F8FAFC">PLpgSQL 0.5%</text>
  <circle cx="730" cy="160" r="5" fill="#94A3B8"/>
  <text x="742" y="164" font-size="11" fill="#F8FAFC">CoffeeScript 0.1%</text>
  <text x="490" y="324" text-anchor="middle" font-size="10" fill="#334155">Last updated: 2026-08-03 • Auto-generated by GitHub Dashboard</text>
</svg>